# xmcd
# 
# Track frame offsets:
#     150
#     28787
#     42925
#     64120
#     90657
#     154910
#     169265
#     182650
#     202275
#     225792
#     232190
#     259162
#     269115
#     285582
# 
# Disc length: 3995
# 
# Revision: 3
# Processed by: cddbd v1.5.2PL0 Copyright (c) Steve Scherf et al.
# Submitted via: BonkEnc v1.0.8
# 
DISCID=cc0f990e
DTITLE=Christian Wallumrod - No Birch
DYEAR=1996
DGENRE=Contemporary Jazz
TTITLE0=She Passes The House Of Her Grandmother
TTITLE1=The Birch 1
TTITLE2=Royal Garden
TTITLE3=Somewhere East
TTITLE4=Travelling - Far East, Slow Brook, I Lost My Heart In Moscow
TTITLE5=The Birch 2
TTITLE6=Ballimaran
TTITLE7=Watering
TTITLE8=Before Church
TTITLE9=The Birch 3
TTITLE10=Two Waltzing, One Square And Then
TTITLE11=Fooling Around
TTITLE12=The Gardener
TTITLE13=The Birch 4
EXTD=YEAR: 1998
EXTT0=
EXTT1=
EXTT2=
EXTT3=
EXTT4=
EXTT5=
EXTT6=
EXTT7=
EXTT8=
EXTT9=
EXTT10=
EXTT11=
EXTT12=
EXTT13=
PLAYORDER=
